<svg version="1.2" xmlns="http://www.w3.org/2000/svg" viewBox="0 0 294 291" width="294" height="291">
	<title>avatar-svg</title>
	<defs>
		<clipPath clipPathUnits="userSpaceOnUse" id="cp1">
			<path d="m172.07 198.89c18.1 2.03 32 7.59 32 22.01v-0.44c25.86 10.93 44 36.52 44 66.36v9h-200v-9c0-29.84 18.15-55.43 44.01-66.36 0.27-14.09 14.08-19.56 31.99-21.57v18.93c0 13.26 10.75 24 24 24 13.26 0 24-10.74 24-24z"/>
		</clipPath>
		<clipPath clipPathUnits="userSpaceOnUse" id="cp2">
			<path d="m172.07 198.89c18.1 2.03 32 7.59 32 22.01v-0.44c25.86 10.93 44 36.52 44 66.36v9h-200v-9c0-29.84 18.15-55.43 44.01-66.36 0.27-14.09 14.08-19.56 31.99-21.57v18.93c0 13.26 10.75 24 24 24 13.26 0 24-10.74 24-24z"/>
		</clipPath>
	</defs>
	<style>
		.s0 { fill: #8a4ca8 } 
		.s1 { fill: #bb8556 } 
		.s2 { opacity: .2;fill: #000000 } 
		.s3 { fill: #191227 } 
		.s4 { fill: #f4f4f4 } 
		.s5 { opacity: .7;fill: #000000 } 
		.s6 { opacity: .6;fill: #000000 } 
		.s7 { fill: #000000 } 
	</style>
	<path id="Layer" class="s0" d="m293.8 161.7c0 41.6-17.5 79.1-45.6 105.5q-0.7-0.8-1.4-1.6c-2.2-2.4-4.8-4.6-7.5-5.7-2.6-1.1-2.9-0.9-8.4-1.2-15.3-0.8-85.2-0.5-108.3 0-13.3 0.2-18.8 0-27.1 1.2-7.6 1.1-16.9 5-21 5.4-2.2 0.2-2.3-0.5-4.3-0.6-2.9-0.2-8.6-0.8-12.6 0-2.5 0.5-5.3 1.4-7.6 2.6-28.1-26.4-45.7-63.9-45.7-105.6 0-79.9 64.8-144.8 144.8-144.8 79.9 0.1 144.7 64.9 144.7 144.8z"/>
	<g id="g-1">
		<path id="path-3" fill-rule="evenodd" class="s1" d="m149.1 28.8c30.9 0 56 25.1 56 56v6.2c5.6 0.9 10 5.9 10 11.8v14c0 6.1-4.5 11.1-10.3 11.9-2.1 19.8-14.5 36.5-31.7 44.7v18.4h4c39.7 0 72 32.3 72 72v9h-200v-9c0-39.7 32.2-72 72-72h4v-18.4c-17.3-8.2-29.7-24.9-31.7-44.7-5.8-0.8-10.3-5.8-10.3-11.9v-14c0-5.9 4.3-10.9 10-11.8v-6.2c0-30.9 25-56 56-56z"/>
		<path id="path-4" fill-rule="evenodd" class="s2" d="m125.1 173.4c7.2 3.5 15.4 5.4 24 5.4 8.6 0 16.7-1.9 24-5.4v5.4c-6.6 4.4-14.5 7-23 7-9.4 0-18.1-3.2-25-8.5z"/>
		<g id="g-2">
			<g id="g-3">
				<path id="g-2" fill-rule="evenodd" class="s2" d="m137.1 122.8c0 4.4 5.3 8 12 8 6.6 0 12-3.6 12-8"/>
			</g>
		</g>
		<g id="g-4">
			<g id="g-5">
				<path id="path-6" fill-rule="evenodd" class="s3" d="m173.1 175.9c18.1 2 32 7.6 32 22v-0.4c25.8 10.9 44 36.5 44 66.3v9h-200v-9c0-29.8 18.1-55.4 44-66.3 0.3-14.1 14.1-19.6 32-21.6v18.9c0 13.3 10.7 24 24 24 13.2 0 24-10.7 24-24z"/>
				<g id="Clip-Path: path-7" clip-path="url(#cp1)">
					<path id="path-7" fill-rule="evenodd" class="s4" d="m119.1 224.6v48.2h-7v-51.8q3.3 1.9 7 3.6zm67-3.6v40.3c0 2-1.6 3.5-3.5 3.5-2 0-3.5-1.5-3.5-3.5v-36.7q3.7-1.7 7-3.6z"/>
				</g>
				<g id="Clip-Path: path-8" clip-path="url(#cp2)">
					<path id="path-8" fill-rule="evenodd" class="s2" d="m190.1 175.5c15.1 2.9 25.5 8.6 25.5 19.6 0 19.7-33.1 35.7-66.5 35.7-33.5 0-66.5-16-66.5-35.7 0-11 10.4-16.7 25.4-19.6-9.1 3.4-14.9 9-14.9 18.4 0 20.4 27.8 36.9 56 36.9 28.2 0 56-16.5 56-36.9 0-9.2-5.7-14.8-14.4-18.1z"/>
				</g>
			</g>
		</g>
		<g id="g-6">
			<g id="g-7">
				<path id="g-6" fill-rule="evenodd" class="s5" d="m135.1 141.8c0 7.8 6.2 14 14 14 7.7 0 14-6.2 14-14"/>
			</g>
		</g>
		<g id="g-8">
			<g id="g-9">
				<path id="path-9" fill-rule="evenodd" class="s6" d="m109.2 105.3c1.9-3.8 6-6.5 10.9-6.5 4.8 0 8.9 2.7 10.8 6.4 0.5 1.1-0.2 2.1-1 1.4-2.5-2.1-6-3.4-9.8-3.4-3.8 0-7.2 1.2-9.6 3.2-0.9 0.7-1.8 0-1.3-1.1z"/>
				<path id="path-9" fill-rule="evenodd" class="s6" d="m167.2 105.3c1.9-3.8 6-6.5 10.9-6.5 4.8 0 8.9 2.7 10.8 6.4 0.5 1.1-0.2 2.1-1 1.4-2.5-2.1-6-3.4-9.8-3.4-3.8 0-7.2 1.2-9.6 3.2-0.9 0.7-1.8 0-1.3-1.1z"/>
			</g>
		</g>
		<g id="g-10">
			<g id="g-11">
				<g id="g-12" style="opacity: .6">
					<path id="path-10" class="s7" d="m108.7 92c3.9-5.5 14.7-8.6 23.9-6.3 1.1 0.2 2.2-0.4 2.4-1.5 0.3-1.1-0.4-2.2-1.4-2.4-10.8-2.7-23.2 0.9-28.2 7.9-0.6 0.9-0.4 2.1 0.5 2.8 0.9 0.6 2.2 0.4 2.8-0.5z"/>
					<path id="path-10" class="s7" d="m189.4 92c-3.9-5.5-14.6-8.6-23.8-6.3-1.1 0.2-2.2-0.4-2.5-1.5-0.2-1.1 0.4-2.2 1.5-2.4 10.7-2.7 23.2 0.9 28.1 7.9 0.6 0.9 0.4 2.1-0.5 2.8-0.9 0.6-2.1 0.4-2.8-0.5z"/>
				</g>
			</g>
		</g>
		<g id="g-13">
			<g id="g-14">
			</g>
		</g>
		<g id="g-15">
			<g id="Hairstyle/Quiff">
			</g>
		</g>
		<g id="g-16">
			<g id="g-17">
			</g>
		</g>
	</g>
</svg>